<?xml version="1.0" standalone="no"?>
<!DOCTYPE svg PUBLIC "-//W3C//DTD SVG 20010904//EN"
 "http://www.w3.org/TR/2001/REC-SVG-20010904/DTD/svg10.dtd">
<svg version="1.0" xmlns="http://www.w3.org/2000/svg"
 width="512.000000pt" height="512.000000pt" viewBox="0 0 512.000000 512.000000"
 preserveAspectRatio="xMidYMid meet">
<metadata>
Created by potrace 1.14, written by Peter Selinger 2001-2017
</metadata>
<g transform="translate(0.000000,512.000000) scale(0.100000,-0.100000)"
fill="#000000" stroke="none">
<path d="M593 5107 c-29 -5 -53 -14 -53 -19 0 -5 -4 -7 -9 -3 -27 16 -204 -80
-288 -156 -98 -89 -180 -221 -220 -354 -17 -57 -18 -166 -20 -1985 -3 -2097
-5 -1990 54 -2135 32 -78 103 -189 134 -208 10 -6 19 -16 19 -22 0 -16 109
-99 180 -138 36 -20 99 -46 140 -59 l75 -23 1930 -2 c2016 -2 1952 -4 2090 37
57 17 162 76 220 124 137 114 223 254 260 426 11 54 13 380 12 2000 l-2 1935
-27 77 c-15 42 -34 91 -44 110 -78 151 -220 285 -369 347 -150 63 -27 59
-2120 59 -1238 -1 -1928 -4 -1962 -11z"/>
</g>
</svg>
