<svg xmlns="http://www.w3.org/2000/svg" width="2147.547" height="1049.354" viewBox="0 0 2147.547 1049.354">
  <g id="Group_220" data-name="Group 220" transform="translate(164.01 40.738)" opacity="0.2">
    <path id="Path_184" data-name="Path 184" d="M-13329-3914v1049.354" transform="translate(14236.942 3873.262)" fill="none" stroke="#fff" stroke-width="1"/>
    <path id="Path_185" data-name="Path 185" d="M-13329-3914v1049.354" transform="translate(14712.542 3873.262)" fill="none" stroke="#fff" stroke-width="1"/>
    <path id="Path_186" data-name="Path 186" d="M-13329-3914v1049.354" transform="translate(14474.153 3873.262)" fill="none" stroke="#fff" stroke-width="1"/>
    <path id="Path_187" data-name="Path 187" d="M-13329-3914v1049.354" transform="translate(14949.753 3873.262)" fill="none" stroke="#fff" stroke-width="1"/>
    <path id="Path_112" data-name="Path 112" d="M-13329-3914v1049.354" transform="translate(13762.517 3873.262)" fill="none" stroke="#fff" stroke-width="1"/>
    <path id="Path_106" data-name="Path 106" d="M-13329-3914v1049.354" transform="translate(13524.132 3873.262)" fill="none" stroke="#fff" stroke-width="1"/>
    <path id="Path_111" data-name="Path 111" d="M-13329-3914v1049.354" transform="translate(13999.731 3873.262)" fill="none" stroke="#fff" stroke-width="1"/>
    <path id="Path_116" data-name="Path 116" d="M0,0V2147.547" transform="translate(1983.537 354.419) rotate(90)" fill="none" stroke="#fff" stroke-width="1"/>
    <path id="Path_117" data-name="Path 117" d="M0,0V2147.547" transform="translate(1983.537 117.206) rotate(90)" fill="none" stroke="#fff" stroke-width="1"/>
    <path id="Path_178" data-name="Path 178" d="M0,0V2147.547" transform="translate(1983.537 830.018) rotate(90)" fill="none" stroke="#fff" stroke-width="1"/>
    <path id="Path_175" data-name="Path 175" d="M0,0V2147.547" transform="translate(1983.537 592.805) rotate(90)" fill="none" stroke="#fff" stroke-width="1"/>
  </g>
</svg>
