<svg xmlns="http://www.w3.org/2000/svg" xmlns:xlink="http://www.w3.org/1999/xlink" width="420" height="223.585" viewBox="0 0 420 223.585">
  <defs>
    <clipPath id="clip-path">
      <rect id="Rectangle_917" data-name="Rectangle 917" width="420" height="223.585" fill="none"/>
    </clipPath>
  </defs>
  <g id="Group_212" data-name="Group 212" transform="translate(0 0)">
    <g id="Group_211" data-name="Group 211" transform="translate(0 0)" clip-path="url(#clip-path)">
      <path id="Path_546" data-name="Path 546" d="M54.154,20.5a35.832,35.832,0,1,0,0,61.594v5.251H71.74V15.374H54.154ZM52.731,58.37a18.212,18.212,0,1,1-1.679-17.24,18.31,18.31,0,0,1,1.679,17.24" transform="translate(0 20.618)" fill="#fff"/>
      <path id="Path_547" data-name="Path 547" d="M186.038,15.374H168.447v5.061a35.847,35.847,0,1,0,0,61.709v5.2h17.586Zm-18.911,43a18.207,18.207,0,1,1-1.676-17.24,17.994,17.994,0,0,1,3,8.339v3.741a18.075,18.075,0,0,1-1.327,5.16" transform="translate(153.347 20.618)" fill="#fff"/>
      <path id="Path_548" data-name="Path 548" d="M101.717,21.76a35.59,35.59,0,0,0-38.195-1.135V15.374H45.936V122.385H63.522V82.214a35.769,35.769,0,0,0,38.195-60.452M98.472,58.5a18.188,18.188,0,0,1-31.848,3.086,18.065,18.065,0,0,1-3.1-10.156v-.009A18.19,18.19,0,1,1,98.472,58.5" transform="translate(61.604 20.618)" fill="#fff"/>
      <path id="Path_549" data-name="Path 549" d="M220.5,105.6V34.3H202.913V74.8a35.832,35.832,0,1,0,0,61.594v5.253H220.5Zm-19.012,7.077a18.207,18.207,0,1,1-1.676-17.237,18.031,18.031,0,0,1,3.1,10.158v.007a18.076,18.076,0,0,1-1.426,7.072" transform="translate(199.501 46.001)" fill="#fff"/>
      <path id="Path_550" data-name="Path 550" d="M134.228,121.125h0A18.089,18.089,0,0,1,132.8,128.2a18.188,18.188,0,0,1-31.848,3.086,18.069,18.069,0,0,1-3.1-10.163H80.266a35.775,35.775,0,0,0,71.548.335V49.6H134.228v5.251a35.832,35.832,0,1,0,0,61.594v4.685m-1.426-28.4a18.207,18.207,0,1,1-1.676-17.237A18.31,18.31,0,0,1,132.8,92.727" transform="translate(107.386 66.518)" fill="#fff"/>
      <path id="Path_551" data-name="Path 551" d="M135.841,42.381a35.514,35.514,0,0,0-37.991-1.25V0H80.264V107.959H97.85V69.46a17.928,17.928,0,0,1,1.222-4.5,18.189,18.189,0,0,1,31.848-3.088,18.056,18.056,0,0,1,3.1,10.165v35.919h17.586V72.04a35.728,35.728,0,0,0-15.767-29.659" transform="translate(107.641 0)" fill="#fff"/>
      <rect id="Rectangle_915" data-name="Rectangle 915" width="17.586" height="107.959" transform="translate(80.861)" fill="#fff"/>
      <rect id="Rectangle_916" data-name="Rectangle 916" width="17.586" height="71.525" transform="translate(321.799 116.12)" fill="#fff"/>
      <path id="Path_552" data-name="Path 552" d="M150.322,49.524a35.31,35.31,0,0,0-18.19,4.977V49.7H114.548v71.525h17.586V85.3a18.106,18.106,0,0,1,1.426-7.077,18.291,18.291,0,0,1,6.6-8.009,18.057,18.057,0,0,1,10.163-3.1h9.093V49.524Z" transform="translate(153.619 66.416)" fill="#fff"/>
    </g>
  </g>
</svg>
