<svg xmlns="http://www.w3.org/2000/svg" width="205.919" height="29" viewBox="0 0 205.919 29">
  <g id="Group_333" data-name="Group 333" transform="translate(-656.659 -854.5)">
    <text id="website_by_" data-name="website by " transform="translate(656.659 854.5)" fill="#fff" font-size="14" font-family="MarkPro, Mark Pro"><tspan x="15" y="14">website by </tspan></text>
    <path id="Union_2" data-name="Union 2" d="M-4602.874,1628.791a8.858,8.858,0,0,1,8.954-8.765,8.865,8.865,0,0,1,8.954,8.737,8.857,8.857,0,0,1-8.939,8.779h-.015A8.858,8.858,0,0,1-4602.874,1628.791Zm8.922-4.417a4.486,4.486,0,0,0-4.5,4.453,4.488,4.488,0,0,0,4.536,4.422v-.027a4.589,4.589,0,0,0,3.215-1.307,4.388,4.388,0,0,0,1.32-3.151,4.488,4.488,0,0,0-4.535-4.389Zm24.638,13.168v-8.779a4.482,4.482,0,0,0-4.531-4.432,4.482,4.482,0,0,0-4.53,4.432v5.564h-4.423v-5.564a8.858,8.858,0,0,1,8.953-8.737,8.858,8.858,0,0,1,8.954,8.737v8.779Zm-40.054,0v-17.516h4.417v17.516Zm-24.292,0v-17.516h4.417v17.516Zm-12.614-.026L-4654,1620h4.423l7.721,17.516Zm22.038-.984a6.375,6.375,0,0,1-2.638-2.6l3.844-2.148a3.236,3.236,0,0,0,1.082,1.269,3.707,3.707,0,0,0,2.163.6,3.3,3.3,0,0,0,1.622-.333,1.291,1.291,0,0,0,.5-.481,1.231,1.231,0,0,0,.178-.656.978.978,0,0,0-.162-.529,1.812,1.812,0,0,0-.817-.624,15.477,15.477,0,0,0-2.162-.688,12.179,12.179,0,0,1-3.726-1.555,4.212,4.212,0,0,1-1.287-1.391,4.243,4.243,0,0,1-.5-2.115,4.675,4.675,0,0,1,1.919-3.929,7.688,7.688,0,0,1,4.6-1.338,7.389,7.389,0,0,1,6.294,3.173l-3.785,1.994a3.268,3.268,0,0,0-.843-.889,2.856,2.856,0,0,0-1.671-.5,2.407,2.407,0,0,0-1.314.317,1.2,1.2,0,0,0-.579,1.057,1.051,1.051,0,0,0,.157.529,1.836,1.836,0,0,0,.822.63,16.019,16.019,0,0,0,2.2.656,11.188,11.188,0,0,1,3.72,1.507,4.223,4.223,0,0,1,1.3,1.455,4.711,4.711,0,0,1,.509,2.258,4.7,4.7,0,0,1-3.1,4.559,9.875,9.875,0,0,1-3.9.719c-.092,0-.184,0-.276,0A9.362,9.362,0,0,1-4624.236,1636.532Zm63.969-.032a6.425,6.425,0,0,1-2.64-2.6l3.85-2.147a3.24,3.24,0,0,0,1.055,1.269,3.7,3.7,0,0,0,2.162.6,3.355,3.355,0,0,0,1.623-.334,1.285,1.285,0,0,0,.681-1.137.984.984,0,0,0-.162-.529,1.851,1.851,0,0,0-.817-.624,15.663,15.663,0,0,0-2.19-.687,12.177,12.177,0,0,1-3.73-1.529,4.208,4.208,0,0,1-1.287-1.391,4.3,4.3,0,0,1-.508-2.115,4.679,4.679,0,0,1,1.925-3.929,7.691,7.691,0,0,1,4.6-1.338,7.386,7.386,0,0,1,6.293,3.174l-3.785,1.994a3.248,3.248,0,0,0-.806-.884,2.866,2.866,0,0,0-1.671-.5,2.4,2.4,0,0,0-1.313.317,1.2,1.2,0,0,0-.579,1.057.938.938,0,0,0,.157.529,1.83,1.83,0,0,0,.821.63,15.916,15.916,0,0,0,2.163.656,11.169,11.169,0,0,1,3.726,1.507,4.334,4.334,0,0,1,1.287,1.455,4.768,4.768,0,0,1,.487,2.253,4.878,4.878,0,0,1-.541,2.375,5.1,5.1,0,0,1-2.547,2.169,9.937,9.937,0,0,1-3.839.709c-.092,0-.184,0-.276,0A9.355,9.355,0,0,1-4560.267,1636.5Zm-81.032-9.777a3.42,3.42,0,0,1-2.588-3.738,3.468,3.468,0,0,1,3.464-2.985,3.514,3.514,0,0,1,2.893,1.5,3.352,3.352,0,0,1,.351,3.185,3.494,3.494,0,0,1-3.242,2.147A3.566,3.566,0,0,1-4641.3,1626.723Z" transform="translate(5411.505 -765.5)" fill="#fff"/>
  </g>
</svg>
